<svg width="417" height="220" viewBox="0 0 417 220" fill="none" xmlns="http://www.w3.org/2000/svg">
<circle cx="25.4483" cy="146.448" r="5.44828" fill="#F2F2F2"/>
<circle cx="59.5" cy="146.448" r="5.44828" fill="#F2F2F2"/>
<circle cx="93.5517" cy="146.448" r="5.44828" fill="#F2F2F2"/>
<circle cx="161.655" cy="146.448" r="5.44828" fill="#F2F2F2"/>
<circle cx="195.707" cy="146.448" r="5.44828" fill="#F2F2F2"/>
<circle cx="127.603" cy="146.448" r="5.44828" fill="#F2F2F2"/>
<circle cx="25.4483" cy="180.5" r="5.44828" fill="#F2F2F2"/>
<circle cx="59.5" cy="180.5" r="5.44828" fill="#F2F2F2"/>
<circle cx="93.5517" cy="180.5" r="5.44828" fill="#F2F2F2"/>
<circle cx="161.655" cy="180.5" r="5.44828" fill="#F2F2F2"/>
<circle cx="195.707" cy="180.5" r="5.44828" fill="#F2F2F2"/>
<circle cx="127.603" cy="180.5" r="5.44828" fill="#F2F2F2"/>
<circle cx="25.4483" cy="214.552" r="5.44828" fill="#F2F2F2"/>
<circle cx="59.5" cy="214.552" r="5.44828" fill="#F2F2F2"/>
<circle cx="93.5517" cy="214.552" r="5.44828" fill="#F2F2F2"/>
<circle cx="161.655" cy="214.552" r="5.44828" fill="#F2F2F2"/>
<circle cx="195.707" cy="214.552" r="5.44828" fill="#F2F2F2"/>
<circle cx="127.603" cy="214.552" r="5.44828" fill="#F2F2F2"/>
<g filter="url(#filter0_d_0_1)">
<rect x="20" y="16" width="377" height="95" rx="5" fill="white"/>
<rect x="20.5" y="16.5" width="376" height="94" rx="4.5" stroke="#E0E0E0"/>
</g>
<path d="M114.651 45H113.358L117.097 34.8182H118.369L122.108 45H120.815L117.773 36.429H117.693L114.651 45ZM115.128 41.0227H120.338V42.1165H115.128V41.0227ZM133.717 37.3636L130.893 45H129.7L126.876 37.3636H128.148L130.256 43.4489H130.336L132.444 37.3636H133.717ZM135.265 45V37.3636H136.439V45H135.265ZM135.862 36.0909C135.633 36.0909 135.436 36.013 135.27 35.8572C135.108 35.7015 135.027 35.5142 135.027 35.2955C135.027 35.0767 135.108 34.8894 135.27 34.7337C135.436 34.5779 135.633 34.5 135.862 34.5C136.091 34.5 136.286 34.5779 136.449 34.7337C136.614 34.8894 136.697 35.0767 136.697 35.2955C136.697 35.5142 136.614 35.7015 136.449 35.8572C136.286 36.013 136.091 36.0909 135.862 36.0909ZM141.471 45.1591C140.835 45.1591 140.273 44.9983 139.786 44.6768C139.298 44.352 138.917 43.8946 138.642 43.3047C138.367 42.7114 138.23 42.0104 138.23 41.2017C138.23 40.3996 138.367 39.7036 138.642 39.1136C138.917 38.5237 139.3 38.0679 139.791 37.7464C140.281 37.425 140.848 37.2642 141.491 37.2642C141.988 37.2642 142.381 37.3471 142.669 37.5128C142.961 37.6752 143.183 37.8608 143.335 38.0696C143.491 38.2751 143.612 38.4441 143.698 38.5767H143.798V34.8182H144.971V45H143.838V43.8267H143.698C143.612 43.9659 143.49 44.1416 143.33 44.3537C143.171 44.5625 142.944 44.7498 142.649 44.9155C142.354 45.0779 141.962 45.1591 141.471 45.1591ZM141.63 44.1051C142.101 44.1051 142.499 43.9825 142.823 43.7372C143.148 43.4886 143.395 43.1456 143.564 42.7081C143.733 42.2673 143.818 41.7585 143.818 41.1818C143.818 40.6117 143.735 40.1129 143.569 39.6854C143.403 39.2545 143.158 38.9197 142.833 38.6811C142.508 38.4392 142.107 38.3182 141.63 38.3182C141.133 38.3182 140.719 38.4458 140.387 38.701C140.059 38.9529 139.812 39.2959 139.646 39.7301C139.484 40.161 139.403 40.6449 139.403 41.1818C139.403 41.7254 139.486 42.2192 139.651 42.6634C139.82 43.1042 140.069 43.4555 140.397 43.7173C140.729 43.9759 141.14 44.1051 141.63 44.1051ZM149.53 45.179C149.046 45.179 148.607 45.0878 148.213 44.9055C147.818 44.7199 147.505 44.4531 147.273 44.1051C147.041 43.7538 146.925 43.3295 146.925 42.8324C146.925 42.3949 147.011 42.0402 147.183 41.7685C147.356 41.4934 147.586 41.2779 147.874 41.1222C148.163 40.9664 148.481 40.8504 148.829 40.7741C149.18 40.6946 149.533 40.6316 149.888 40.5852C150.352 40.5256 150.728 40.4808 151.017 40.451C151.308 40.4179 151.52 40.3632 151.653 40.2869C151.789 40.2107 151.857 40.0781 151.857 39.8892V39.8494C151.857 39.3589 151.722 38.9777 151.454 38.706C151.189 38.4342 150.786 38.2983 150.246 38.2983C149.686 38.2983 149.247 38.4209 148.928 38.6662C148.61 38.9115 148.387 39.1733 148.257 39.4517L147.144 39.054C147.343 38.59 147.608 38.2287 147.939 37.9702C148.274 37.7083 148.638 37.526 149.033 37.4233C149.431 37.3172 149.822 37.2642 150.206 37.2642C150.451 37.2642 150.733 37.294 151.051 37.3537C151.373 37.41 151.683 37.5277 151.981 37.7067C152.283 37.8857 152.533 38.1558 152.732 38.517C152.931 38.8783 153.03 39.3622 153.03 39.9688V45H151.857V43.9659H151.797C151.718 44.1316 151.585 44.3089 151.399 44.4979C151.214 44.6868 150.967 44.8475 150.659 44.9801C150.35 45.1127 149.974 45.179 149.53 45.179ZM149.709 44.125C150.173 44.125 150.564 44.0339 150.882 43.8516C151.204 43.6693 151.446 43.4339 151.608 43.1456C151.774 42.8572 151.857 42.554 151.857 42.2358V41.1619C151.807 41.2216 151.698 41.2763 151.529 41.326C151.363 41.3724 151.171 41.4138 150.952 41.4503C150.736 41.4834 150.526 41.5133 150.32 41.5398C150.118 41.563 149.954 41.5829 149.828 41.5994C149.523 41.6392 149.238 41.7038 148.973 41.7933C148.711 41.8795 148.499 42.0104 148.337 42.1861C148.178 42.3584 148.098 42.5937 148.098 42.892C148.098 43.2997 148.249 43.608 148.551 43.8168C148.856 44.0223 149.242 44.125 149.709 44.125ZM162.311 45.1591C161.575 45.1591 160.94 44.9967 160.407 44.6719C159.876 44.3438 159.467 43.8864 159.179 43.2997C158.894 42.7098 158.751 42.0237 158.751 41.2415C158.751 40.4593 158.894 39.7699 159.179 39.1733C159.467 38.5734 159.868 38.1061 160.382 37.7713C160.899 37.4332 161.502 37.2642 162.191 37.2642C162.589 37.2642 162.982 37.3305 163.37 37.4631C163.757 37.5956 164.11 37.8111 164.429 38.1094C164.747 38.4044 165 38.7955 165.189 39.2827C165.378 39.7699 165.473 40.3698 165.473 41.0824V41.5795H159.586V40.5653H164.279C164.279 40.1345 164.193 39.75 164.021 39.4119C163.852 39.0739 163.61 38.8071 163.295 38.6115C162.984 38.416 162.616 38.3182 162.191 38.3182C161.724 38.3182 161.32 38.4342 160.978 38.6662C160.64 38.8949 160.38 39.1932 160.198 39.5611C160.016 39.929 159.924 40.3234 159.924 40.7443V41.4205C159.924 41.9972 160.024 42.486 160.223 42.8871C160.425 43.2848 160.705 43.5881 161.063 43.7969C161.421 44.0024 161.837 44.1051 162.311 44.1051C162.619 44.1051 162.897 44.062 163.146 43.9759C163.398 43.8864 163.615 43.7538 163.797 43.5781C163.98 43.3991 164.12 43.1771 164.22 42.9119L165.353 43.2301C165.234 43.6146 165.033 43.9527 164.752 44.2443C164.47 44.5327 164.122 44.758 163.708 44.9205C163.293 45.0795 162.828 45.1591 162.311 45.1591ZM161.595 36.3295L162.808 34.0227H164.18L162.629 36.3295H161.595ZM174.297 45.1591C173.581 45.1591 172.965 44.9901 172.448 44.652C171.931 44.3139 171.533 43.8482 171.255 43.255C170.976 42.6617 170.837 41.9839 170.837 41.2216C170.837 40.446 170.98 39.7616 171.265 39.1683C171.553 38.5717 171.954 38.1061 172.468 37.7713C172.985 37.4332 173.588 37.2642 174.277 37.2642C174.814 37.2642 175.298 37.3636 175.729 37.5625C176.16 37.7614 176.513 38.0398 176.788 38.3977C177.063 38.7557 177.234 39.1733 177.3 39.6506H176.127C176.037 39.3026 175.838 38.9943 175.53 38.7259C175.225 38.4541 174.814 38.3182 174.297 38.3182C173.84 38.3182 173.439 38.4375 173.094 38.6761C172.753 38.9115 172.486 39.2446 172.294 39.6754C172.105 40.103 172.01 40.6051 172.01 41.1818C172.01 41.7718 172.103 42.2855 172.289 42.723C172.478 43.1605 172.743 43.5002 173.084 43.7422C173.429 43.9841 173.833 44.1051 174.297 44.1051C174.602 44.1051 174.879 44.0521 175.127 43.946C175.376 43.84 175.587 43.6875 175.759 43.4886C175.931 43.2898 176.054 43.0511 176.127 42.7727H177.3C177.234 43.2235 177.07 43.6295 176.808 43.9908C176.549 44.3487 176.206 44.6338 175.779 44.8459C175.355 45.0547 174.861 45.1591 174.297 45.1591ZM182.118 45.1591C181.428 45.1591 180.823 44.995 180.303 44.6669C179.786 44.3388 179.382 43.8797 179.09 43.2898C178.801 42.6998 178.657 42.0104 178.657 41.2216C178.657 40.4261 178.801 39.7318 179.09 39.1385C179.382 38.5452 179.786 38.0845 180.303 37.7564C180.823 37.4283 181.428 37.2642 182.118 37.2642C182.807 37.2642 183.41 37.4283 183.927 37.7564C184.448 38.0845 184.852 38.5452 185.14 39.1385C185.432 39.7318 185.578 40.4261 185.578 41.2216C185.578 42.0104 185.432 42.6998 185.14 43.2898C184.852 43.8797 184.448 44.3388 183.927 44.6669C183.41 44.995 182.807 45.1591 182.118 45.1591ZM182.118 44.1051C182.641 44.1051 183.072 43.9709 183.41 43.7024C183.748 43.4339 183.998 43.081 184.161 42.6435C184.323 42.206 184.404 41.732 184.404 41.2216C184.404 40.7112 184.323 40.2356 184.161 39.7947C183.998 39.3539 183.748 38.9976 183.41 38.7259C183.072 38.4541 182.641 38.3182 182.118 38.3182C181.594 38.3182 181.163 38.4541 180.825 38.7259C180.487 38.9976 180.237 39.3539 180.074 39.7947C179.912 40.2356 179.831 40.7112 179.831 41.2216C179.831 41.732 179.912 42.206 180.074 42.6435C180.237 43.081 180.487 43.4339 180.825 43.7024C181.163 43.9709 181.594 44.1051 182.118 44.1051ZM187.369 45V37.3636H188.502V38.5568H188.602C188.761 38.1491 189.018 37.8326 189.372 37.6072C189.727 37.3786 190.153 37.2642 190.65 37.2642C191.154 37.2642 191.573 37.3786 191.908 37.6072C192.246 37.8326 192.509 38.1491 192.698 38.5568H192.778C192.973 38.1624 193.267 37.8492 193.658 37.6172C194.049 37.3819 194.518 37.2642 195.065 37.2642C195.748 37.2642 196.306 37.478 196.74 37.9055C197.174 38.3298 197.392 38.991 197.392 39.8892V45H196.218V39.8892C196.218 39.3258 196.064 38.9231 195.756 38.6811C195.448 38.4392 195.085 38.3182 194.667 38.3182C194.13 38.3182 193.714 38.4806 193.419 38.8054C193.124 39.1269 192.977 39.5346 192.977 40.0284V45H191.784V39.7699C191.784 39.3357 191.643 38.986 191.361 38.7209C191.079 38.4524 190.716 38.3182 190.272 38.3182C189.967 38.3182 189.682 38.3994 189.417 38.5618C189.155 38.7242 188.943 38.9496 188.781 39.2379C188.622 39.523 188.542 39.8527 188.542 40.2273V45H187.369ZM202.639 45.1591C201.95 45.1591 201.345 44.995 200.824 44.6669C200.307 44.3388 199.903 43.8797 199.611 43.2898C199.323 42.6998 199.179 42.0104 199.179 41.2216C199.179 40.4261 199.323 39.7318 199.611 39.1385C199.903 38.5452 200.307 38.0845 200.824 37.7564C201.345 37.4283 201.95 37.2642 202.639 37.2642C203.328 37.2642 203.932 37.4283 204.449 37.7564C204.969 38.0845 205.373 38.5452 205.662 39.1385C205.953 39.7318 206.099 40.4261 206.099 41.2216C206.099 42.0104 205.953 42.6998 205.662 43.2898C205.373 43.8797 204.969 44.3388 204.449 44.6669C203.932 44.995 203.328 45.1591 202.639 45.1591ZM202.639 44.1051C203.163 44.1051 203.594 43.9709 203.932 43.7024C204.27 43.4339 204.52 43.081 204.682 42.6435C204.845 42.206 204.926 41.732 204.926 41.2216C204.926 40.7112 204.845 40.2356 204.682 39.7947C204.52 39.3539 204.27 38.9976 203.932 38.7259C203.594 38.4541 203.163 38.3182 202.639 38.3182C202.115 38.3182 201.684 38.4541 201.346 38.7259C201.008 38.9976 200.758 39.3539 200.596 39.7947C200.433 40.2356 200.352 40.7112 200.352 41.2216C200.352 41.732 200.433 42.206 200.596 42.6435C200.758 43.081 201.008 43.4339 201.346 43.7024C201.684 43.9709 202.115 44.1051 202.639 44.1051ZM216.64 41.8778V37.3636H217.814V45H216.64V43.7074H216.561C216.382 44.0952 216.103 44.425 215.725 44.6967C215.348 44.9652 214.87 45.0994 214.294 45.0994C213.816 45.0994 213.392 44.995 213.021 44.7862C212.65 44.5741 212.358 44.2559 212.146 43.8317C211.934 43.4041 211.828 42.8655 211.828 42.2159V37.3636H213.001V42.1364C213.001 42.6932 213.157 43.1373 213.468 43.4688C213.783 43.8002 214.184 43.9659 214.672 43.9659C214.963 43.9659 215.26 43.8913 215.561 43.7422C215.866 43.593 216.122 43.3643 216.327 43.0561C216.536 42.7479 216.64 42.3551 216.64 41.8778ZM219.963 45V37.3636H221.096V38.5568H221.195C221.355 38.1491 221.611 37.8326 221.966 37.6072C222.321 37.3786 222.747 37.2642 223.244 37.2642C223.748 37.2642 224.167 37.3786 224.502 37.6072C224.84 37.8326 225.103 38.1491 225.292 38.5568H225.372C225.567 38.1624 225.86 37.8492 226.252 37.6172C226.643 37.3819 227.112 37.2642 227.659 37.2642C228.341 37.2642 228.9 37.478 229.334 37.9055C229.768 38.3298 229.985 38.991 229.985 39.8892V45H228.812V39.8892C228.812 39.3258 228.658 38.9231 228.35 38.6811C228.041 38.4392 227.678 38.3182 227.261 38.3182C226.724 38.3182 226.308 38.4806 226.013 38.8054C225.718 39.1269 225.57 39.5346 225.57 40.0284V45H224.377V39.7699C224.377 39.3357 224.236 38.986 223.955 38.7209C223.673 38.4524 223.31 38.3182 222.866 38.3182C222.561 38.3182 222.276 38.3994 222.011 38.5618C221.749 38.7242 221.537 38.9496 221.374 39.2379C221.215 39.523 221.136 39.8527 221.136 40.2273V45H219.963ZM241.477 39.0739L240.423 39.3722C240.357 39.1965 240.259 39.0258 240.13 38.8601C240.004 38.6911 239.831 38.5518 239.613 38.4425C239.394 38.3331 239.114 38.2784 238.773 38.2784C238.305 38.2784 237.916 38.3861 237.604 38.6016C237.296 38.8137 237.142 39.0838 237.142 39.4119C237.142 39.7036 237.248 39.9339 237.46 40.103C237.672 40.272 238.004 40.4129 238.454 40.5256L239.588 40.804C240.271 40.9697 240.779 41.2232 241.114 41.5646C241.449 41.9027 241.616 42.3385 241.616 42.8722C241.616 43.3097 241.49 43.7008 241.238 44.0455C240.99 44.3902 240.642 44.6619 240.194 44.8608C239.747 45.0597 239.227 45.1591 238.633 45.1591C237.854 45.1591 237.21 44.9901 236.699 44.652C236.189 44.3139 235.866 43.8201 235.73 43.1705L236.844 42.892C236.95 43.303 237.15 43.6113 237.445 43.8168C237.743 44.0223 238.133 44.125 238.613 44.125C239.16 44.125 239.595 44.009 239.916 43.777C240.241 43.5417 240.403 43.2599 240.403 42.9318C240.403 42.6667 240.31 42.4446 240.125 42.2656C239.939 42.0833 239.654 41.9474 239.27 41.858L237.997 41.5597C237.298 41.3939 236.784 41.1371 236.456 40.7891C236.131 40.4377 235.969 39.9986 235.969 39.4716C235.969 39.0407 236.09 38.6596 236.331 38.3281C236.577 37.9967 236.91 37.7365 237.331 37.5476C237.755 37.3587 238.236 37.2642 238.773 37.2642C239.528 37.2642 240.122 37.4299 240.552 37.7614C240.987 38.0928 241.295 38.5303 241.477 39.0739ZM245.63 45.179C245.146 45.179 244.707 45.0878 244.312 44.9055C243.918 44.7199 243.605 44.4531 243.373 44.1051C243.141 43.7538 243.025 43.3295 243.025 42.8324C243.025 42.3949 243.111 42.0402 243.283 41.7685C243.455 41.4934 243.686 41.2779 243.974 41.1222C244.262 40.9664 244.581 40.8504 244.929 40.7741C245.28 40.6946 245.633 40.6316 245.988 40.5852C246.452 40.5256 246.828 40.4808 247.116 40.451C247.408 40.4179 247.62 40.3632 247.752 40.2869C247.888 40.2107 247.956 40.0781 247.956 39.8892V39.8494C247.956 39.3589 247.822 38.9777 247.554 38.706C247.288 38.4342 246.886 38.2983 246.346 38.2983C245.785 38.2983 245.346 38.4209 245.028 38.6662C244.71 38.9115 244.486 39.1733 244.357 39.4517L243.243 39.054C243.442 38.59 243.707 38.2287 244.039 37.9702C244.373 37.7083 244.738 37.526 245.132 37.4233C245.53 37.3172 245.921 37.2642 246.306 37.2642C246.551 37.2642 246.833 37.294 247.151 37.3537C247.472 37.41 247.782 37.5277 248.081 37.7067C248.382 37.8857 248.632 38.1558 248.831 38.517C249.03 38.8783 249.13 39.3622 249.13 39.9688V45H247.956V43.9659H247.897C247.817 44.1316 247.685 44.3089 247.499 44.4979C247.313 44.6868 247.066 44.8475 246.758 44.9801C246.45 45.1127 246.074 45.179 245.63 45.179ZM245.809 44.125C246.273 44.125 246.664 44.0339 246.982 43.8516C247.303 43.6693 247.545 43.4339 247.708 43.1456C247.873 42.8572 247.956 42.554 247.956 42.2358V41.1619C247.907 41.2216 247.797 41.2763 247.628 41.326C247.462 41.3724 247.27 41.4138 247.051 41.4503C246.836 41.4834 246.626 41.5133 246.42 41.5398C246.218 41.563 246.054 41.5829 245.928 41.5994C245.623 41.6392 245.338 41.7038 245.073 41.7933C244.811 41.8795 244.599 42.0104 244.436 42.1861C244.277 42.3584 244.198 42.5937 244.198 42.892C244.198 43.2997 244.349 43.608 244.65 43.8168C244.955 44.0223 245.341 44.125 245.809 44.125ZM252.444 40.4062V45H251.271V37.3636H252.405V38.5568H252.504C252.683 38.169 252.955 37.8575 253.319 37.6222C253.684 37.3835 254.155 37.2642 254.731 37.2642C255.248 37.2642 255.701 37.3703 256.089 37.5824C256.476 37.7912 256.778 38.1094 256.993 38.5369C257.209 38.9612 257.317 39.4981 257.317 40.1477V45H256.143V40.2273C256.143 39.6274 255.988 39.16 255.676 38.8253C255.364 38.4872 254.937 38.3182 254.393 38.3182C254.019 38.3182 253.684 38.3994 253.389 38.5618C253.097 38.7242 252.867 38.9612 252.698 39.2727C252.529 39.5843 252.444 39.9621 252.444 40.4062ZM262.344 45.1591C261.708 45.1591 261.146 44.9983 260.659 44.6768C260.172 44.352 259.79 43.8946 259.515 43.3047C259.24 42.7114 259.103 42.0104 259.103 41.2017C259.103 40.3996 259.24 39.7036 259.515 39.1136C259.79 38.5237 260.173 38.0679 260.664 37.7464C261.154 37.425 261.721 37.2642 262.364 37.2642C262.861 37.2642 263.254 37.3471 263.542 37.5128C263.834 37.6752 264.056 37.8608 264.208 38.0696C264.364 38.2751 264.485 38.4441 264.571 38.5767H264.671V34.8182H265.844V45H264.711V43.8267H264.571C264.485 43.9659 264.363 44.1416 264.203 44.3537C264.044 44.5625 263.817 44.7498 263.522 44.9155C263.227 45.0779 262.835 45.1591 262.344 45.1591ZM262.503 44.1051C262.974 44.1051 263.372 43.9825 263.696 43.7372C264.021 43.4886 264.268 43.1456 264.437 42.7081C264.606 42.2673 264.691 41.7585 264.691 41.1818C264.691 40.6117 264.608 40.1129 264.442 39.6854C264.276 39.2545 264.031 38.9197 263.706 38.6811C263.382 38.4392 262.98 38.3182 262.503 38.3182C262.006 38.3182 261.592 38.4458 261.26 38.701C260.932 38.9529 260.685 39.2959 260.52 39.7301C260.357 40.161 260.276 40.6449 260.276 41.1818C260.276 41.7254 260.359 42.2192 260.525 42.6634C260.694 43.1042 260.942 43.4555 261.27 43.7173C261.602 43.9759 262.013 44.1051 262.503 44.1051ZM272.968 41.8778V37.3636H274.142V45H272.968V43.7074H272.889C272.71 44.0952 272.431 44.425 272.054 44.6967C271.676 44.9652 271.199 45.0994 270.622 45.0994C270.145 45.0994 269.72 44.995 269.349 44.7862C268.978 44.5741 268.686 44.2559 268.474 43.8317C268.262 43.4041 268.156 42.8655 268.156 42.2159V37.3636H269.329V42.1364C269.329 42.6932 269.485 43.1373 269.797 43.4688C270.111 43.8002 270.512 43.9659 271 43.9659C271.291 43.9659 271.588 43.8913 271.89 43.7422C272.194 43.593 272.45 43.3643 272.655 43.0561C272.864 42.7479 272.968 42.3551 272.968 41.8778ZM276.291 45V37.3636H277.464V45H276.291ZM276.35 36.3295L277.563 34.0227H278.936L277.384 36.3295H276.35ZM282.715 45.1591C281.999 45.1591 281.383 44.9901 280.866 44.652C280.349 44.3139 279.951 43.8482 279.673 43.255C279.394 42.6617 279.255 41.9839 279.255 41.2216C279.255 40.446 279.397 39.7616 279.683 39.1683C279.971 38.5717 280.372 38.1061 280.886 37.7713C281.403 37.4332 282.006 37.2642 282.695 37.2642C283.232 37.2642 283.716 37.3636 284.147 37.5625C284.578 37.7614 284.931 38.0398 285.206 38.3977C285.481 38.7557 285.652 39.1733 285.718 39.6506H284.545C284.455 39.3026 284.256 38.9943 283.948 38.7259C283.643 38.4541 283.232 38.3182 282.715 38.3182C282.258 38.3182 281.857 38.4375 281.512 38.6761C281.171 38.9115 280.904 39.2446 280.712 39.6754C280.523 40.103 280.428 40.6051 280.428 41.1818C280.428 41.7718 280.521 42.2855 280.707 42.723C280.896 43.1605 281.161 43.5002 281.502 43.7422C281.847 43.9841 282.251 44.1051 282.715 44.1051C283.02 44.1051 283.297 44.0521 283.545 43.946C283.794 43.84 284.004 43.6875 284.177 43.4886C284.349 43.2898 284.472 43.0511 284.545 42.7727H285.718C285.652 43.2235 285.488 43.6295 285.226 43.9908C284.967 44.3487 284.624 44.6338 284.197 44.8459C283.772 45.0547 283.279 45.1591 282.715 45.1591ZM288.607 40.4062V45H287.433V34.8182H288.607V38.5568H288.706C288.885 38.1624 289.153 37.8492 289.511 37.6172C289.873 37.3819 290.353 37.2642 290.953 37.2642C291.473 37.2642 291.929 37.3686 292.32 37.5774C292.711 37.7829 293.015 38.0994 293.23 38.527C293.449 38.9512 293.558 39.4915 293.558 40.1477V45H292.385V40.2273C292.385 39.6207 292.228 39.1518 291.913 38.8203C291.601 38.4856 291.169 38.3182 290.615 38.3182C290.231 38.3182 289.886 38.3994 289.581 38.5618C289.279 38.7242 289.041 38.9612 288.865 39.2727C288.693 39.5843 288.607 39.9621 288.607 40.4062ZM298.906 45.1591C298.171 45.1591 297.536 44.9967 297.002 44.6719C296.472 44.3438 296.063 43.8864 295.774 43.2997C295.489 42.7098 295.347 42.0237 295.347 41.2415C295.347 40.4593 295.489 39.7699 295.774 39.1733C296.063 38.5734 296.464 38.1061 296.977 37.7713C297.494 37.4332 298.098 37.2642 298.787 37.2642C299.185 37.2642 299.578 37.3305 299.965 37.4631C300.353 37.5956 300.706 37.8111 301.024 38.1094C301.343 38.4044 301.596 38.7955 301.785 39.2827C301.974 39.7699 302.068 40.3698 302.068 41.0824V41.5795H296.182V40.5653H300.875C300.875 40.1345 300.789 39.75 300.617 39.4119C300.448 39.0739 300.206 38.8071 299.891 38.6115C299.579 38.416 299.211 38.3182 298.787 38.3182C298.32 38.3182 297.915 38.4342 297.574 38.6662C297.236 38.8949 296.976 39.1932 296.794 39.5611C296.611 39.929 296.52 40.3234 296.52 40.7443V41.4205C296.52 41.9972 296.619 42.486 296.818 42.8871C297.021 43.2848 297.301 43.5881 297.659 43.7969C298.017 44.0024 298.432 44.1051 298.906 44.1051C299.215 44.1051 299.493 44.062 299.742 43.9759C299.994 43.8864 300.211 43.7538 300.393 43.5781C300.575 43.3991 300.716 43.1771 300.816 42.9119L301.949 43.2301C301.83 43.6146 301.629 43.9527 301.347 44.2443C301.066 44.5327 300.718 44.758 300.303 44.9205C299.889 45.0795 299.423 45.1591 298.906 45.1591ZM305.603 43.608L305.524 44.1449C305.467 44.5227 305.381 44.9271 305.265 45.358C305.152 45.7888 305.035 46.1948 304.912 46.576C304.789 46.9571 304.688 47.2604 304.609 47.4858H303.714C303.757 47.2737 303.813 46.9936 303.883 46.6456C303.953 46.2976 304.022 45.9081 304.092 45.4773C304.165 45.0497 304.224 44.6122 304.271 44.1648L304.33 43.608H305.603ZM314.916 45.1591C314.18 45.1591 313.546 44.9967 313.012 44.6719C312.482 44.3438 312.072 43.8864 311.784 43.2997C311.499 42.7098 311.357 42.0237 311.357 41.2415C311.357 40.4593 311.499 39.7699 311.784 39.1733C312.072 38.5734 312.473 38.1061 312.987 37.7713C313.504 37.4332 314.107 37.2642 314.797 37.2642C315.195 37.2642 315.587 37.3305 315.975 37.4631C316.363 37.5956 316.716 37.8111 317.034 38.1094C317.352 38.4044 317.606 38.7955 317.795 39.2827C317.984 39.7699 318.078 40.3698 318.078 41.0824V41.5795H312.192V40.5653H316.885C316.885 40.1345 316.799 39.75 316.626 39.4119C316.457 39.0739 316.215 38.8071 315.901 38.6115C315.589 38.416 315.221 38.3182 314.797 38.3182C314.33 38.3182 313.925 38.4342 313.584 38.6662C313.246 38.8949 312.986 39.1932 312.803 39.5611C312.621 39.929 312.53 40.3234 312.53 40.7443V41.4205C312.53 41.9972 312.629 42.486 312.828 42.8871C313.03 43.2848 313.31 43.5881 313.668 43.7969C314.026 44.0024 314.442 44.1051 314.916 44.1051C315.224 44.1051 315.503 44.062 315.751 43.9759C316.003 43.8864 316.22 43.7538 316.403 43.5781C316.585 43.3991 316.726 43.1771 316.825 42.9119L317.959 43.2301C317.839 43.6146 317.639 43.9527 317.357 44.2443C317.076 44.5327 316.728 44.758 316.313 44.9205C315.899 45.0795 315.433 45.1591 314.916 45.1591ZM314.2 36.3295L315.413 34.0227H316.786L315.234 36.3295H314.2ZM323.8 47.8636V37.3636H324.934V38.5767H325.073C325.159 38.4441 325.279 38.2751 325.431 38.0696C325.587 37.8608 325.809 37.6752 326.097 37.5128C326.389 37.3471 326.783 37.2642 327.281 37.2642C327.924 37.2642 328.49 37.425 328.981 37.7464C329.471 38.0679 329.854 38.5237 330.129 39.1136C330.404 39.7036 330.542 40.3996 330.542 41.2017C330.542 42.0104 330.404 42.7114 330.129 43.3047C329.854 43.8946 329.473 44.352 328.986 44.6768C328.499 44.9983 327.937 45.1591 327.3 45.1591C326.81 45.1591 326.417 45.0779 326.122 44.9155C325.827 44.7498 325.6 44.5625 325.441 44.3537C325.282 44.1416 325.159 43.9659 325.073 43.8267H324.974V47.8636H323.8ZM324.954 41.1818C324.954 41.7585 325.038 42.2673 325.207 42.7081C325.376 43.1456 325.623 43.4886 325.948 43.7372C326.273 43.9825 326.671 44.1051 327.141 44.1051C327.632 44.1051 328.041 43.9759 328.369 43.7173C328.701 43.4555 328.949 43.1042 329.115 42.6634C329.284 42.2192 329.369 41.7254 329.369 41.1818C329.369 40.6449 329.286 40.161 329.12 39.7301C328.958 39.2959 328.711 38.9529 328.379 38.701C328.051 38.4458 327.638 38.3182 327.141 38.3182C326.664 38.3182 326.263 38.4392 325.938 38.6811C325.613 38.9197 325.368 39.2545 325.202 39.6854C325.037 40.1129 324.954 40.6117 324.954 41.1818ZM332.332 45V37.3636H333.465V38.517H333.545C333.684 38.1392 333.936 37.8326 334.3 37.5973C334.665 37.362 335.076 37.2443 335.533 37.2443C335.62 37.2443 335.727 37.246 335.857 37.2493C335.986 37.2526 336.084 37.2576 336.15 37.2642V38.4574C336.11 38.4474 336.019 38.4325 335.876 38.4126C335.737 38.3894 335.59 38.3778 335.434 38.3778C335.063 38.3778 334.731 38.4557 334.44 38.6115C334.151 38.764 333.923 38.9761 333.754 39.2479C333.588 39.5163 333.505 39.8229 333.505 40.1676V45H332.332ZM340.51 45.1591C339.774 45.1591 339.139 44.9967 338.606 44.6719C338.076 44.3438 337.666 43.8864 337.378 43.2997C337.093 42.7098 336.95 42.0237 336.95 41.2415C336.95 40.4593 337.093 39.7699 337.378 39.1733C337.666 38.5734 338.067 38.1061 338.581 37.7713C339.098 37.4332 339.701 37.2642 340.391 37.2642C340.788 37.2642 341.181 37.3305 341.569 37.4631C341.957 37.5956 342.31 37.8111 342.628 38.1094C342.946 38.4044 343.2 38.7955 343.388 39.2827C343.577 39.7699 343.672 40.3698 343.672 41.0824V41.5795H337.786V40.5653H342.479C342.479 40.1345 342.393 39.75 342.22 39.4119C342.051 39.0739 341.809 38.8071 341.494 38.6115C341.183 38.416 340.815 38.3182 340.391 38.3182C339.923 38.3182 339.519 38.4342 339.178 38.6662C338.839 38.8949 338.579 39.1932 338.397 39.5611C338.215 39.929 338.124 40.3234 338.124 40.7443V41.4205C338.124 41.9972 338.223 42.486 338.422 42.8871C338.624 43.2848 338.904 43.5881 339.262 43.7969C339.62 44.0024 340.036 44.1051 340.51 44.1051C340.818 44.1051 341.097 44.062 341.345 43.9759C341.597 43.8864 341.814 43.7538 341.996 43.5781C342.179 43.3991 342.32 43.1771 342.419 42.9119L343.553 43.2301C343.433 43.6146 343.233 43.9527 342.951 44.2443C342.669 44.5327 342.321 44.758 341.907 44.9205C341.493 45.0795 341.027 45.1591 340.51 45.1591ZM348.559 45.1591C347.843 45.1591 347.227 44.9901 346.71 44.652C346.192 44.3139 345.795 43.8482 345.516 43.255C345.238 42.6617 345.099 41.9839 345.099 41.2216C345.099 40.446 345.241 39.7616 345.526 39.1683C345.815 38.5717 346.216 38.1061 346.729 37.7713C347.246 37.4332 347.85 37.2642 348.539 37.2642C349.076 37.2642 349.56 37.3636 349.991 37.5625C350.422 37.7614 350.775 38.0398 351.05 38.3977C351.325 38.7557 351.496 39.1733 351.562 39.6506H350.388C350.299 39.3026 350.1 38.9943 349.792 38.7259C349.487 38.4541 349.076 38.3182 348.559 38.3182C348.102 38.3182 347.701 38.4375 347.356 38.6761C347.014 38.9115 346.748 39.2446 346.555 39.6754C346.366 40.103 346.272 40.6051 346.272 41.1818C346.272 41.7718 346.365 42.2855 346.55 42.723C346.739 43.1605 347.004 43.5002 347.346 43.7422C347.691 43.9841 348.095 44.1051 348.559 44.1051C348.864 44.1051 349.141 44.0521 349.389 43.946C349.638 43.84 349.848 43.6875 350.021 43.4886C350.193 43.2898 350.316 43.0511 350.388 42.7727H351.562C351.496 43.2235 351.331 43.6295 351.07 43.9908C350.811 44.3487 350.468 44.6338 350.04 44.8459C349.616 45.0547 349.122 45.1591 348.559 45.1591ZM353.277 45V37.3636H354.45V45H353.277ZM353.874 36.0909C353.645 36.0909 353.448 36.013 353.282 35.8572C353.12 35.7015 353.038 35.5142 353.038 35.2955C353.038 35.0767 353.12 34.8894 353.282 34.7337C353.448 34.5779 353.645 34.5 353.874 34.5C354.102 34.5 354.298 34.5779 354.46 34.7337C354.626 34.8894 354.709 35.0767 354.709 35.2955C354.709 35.5142 354.626 35.7015 354.46 35.8572C354.298 36.013 354.102 36.0909 353.874 36.0909ZM362.008 39.0739L360.954 39.3722C360.888 39.1965 360.79 39.0258 360.661 38.8601C360.535 38.6911 360.363 38.5518 360.144 38.4425C359.925 38.3331 359.645 38.2784 359.304 38.2784C358.836 38.2784 358.447 38.3861 358.135 38.6016C357.827 38.8137 357.673 39.0838 357.673 39.4119C357.673 39.7036 357.779 39.9339 357.991 40.103C358.203 40.272 358.535 40.4129 358.986 40.5256L360.119 40.804C360.802 40.9697 361.311 41.2232 361.645 41.5646C361.98 41.9027 362.148 42.3385 362.148 42.8722C362.148 43.3097 362.022 43.7008 361.77 44.0455C361.521 44.3902 361.173 44.6619 360.726 44.8608C360.278 45.0597 359.758 45.1591 359.165 45.1591C358.386 45.1591 357.741 44.9901 357.231 44.652C356.72 44.3139 356.397 43.8201 356.261 43.1705L357.375 42.892C357.481 43.303 357.681 43.6113 357.976 43.8168C358.275 44.0223 358.664 44.125 359.145 44.125C359.692 44.125 360.126 44.009 360.447 43.777C360.772 43.5417 360.934 43.2599 360.934 42.9318C360.934 42.6667 360.842 42.4446 360.656 42.2656C360.47 42.0833 360.185 41.9474 359.801 41.858L358.528 41.5597C357.829 41.3939 357.315 41.1371 356.987 40.7891C356.662 40.4377 356.5 39.9986 356.5 39.4716C356.5 39.0407 356.621 38.6596 356.863 38.3281C357.108 37.9967 357.441 37.7365 357.862 37.5476C358.286 37.3587 358.767 37.2642 359.304 37.2642C360.059 37.2642 360.653 37.4299 361.084 37.7614C361.518 38.0928 361.826 38.5303 362.008 39.0739ZM367.016 45.1591C366.327 45.1591 365.722 44.995 365.201 44.6669C364.684 44.3388 364.28 43.8797 363.988 43.2898C363.7 42.6998 363.556 42.0104 363.556 41.2216C363.556 40.4261 363.7 39.7318 363.988 39.1385C364.28 38.5452 364.684 38.0845 365.201 37.7564C365.722 37.4283 366.327 37.2642 367.016 37.2642C367.705 37.2642 368.309 37.4283 368.826 37.7564C369.346 38.0845 369.75 38.5452 370.039 39.1385C370.33 39.7318 370.476 40.4261 370.476 41.2216C370.476 42.0104 370.33 42.6998 370.039 43.2898C369.75 43.8797 369.346 44.3388 368.826 44.6669C368.309 44.995 367.705 45.1591 367.016 45.1591ZM367.016 44.1051C367.54 44.1051 367.971 43.9709 368.309 43.7024C368.647 43.4339 368.897 43.081 369.059 42.6435C369.222 42.206 369.303 41.732 369.303 41.2216C369.303 40.7112 369.222 40.2356 369.059 39.7947C368.897 39.3539 368.647 38.9976 368.309 38.7259C367.971 38.4541 367.54 38.3182 367.016 38.3182C366.492 38.3182 366.061 38.4541 365.723 38.7259C365.385 38.9976 365.135 39.3539 364.973 39.7947C364.81 40.2356 364.729 40.7112 364.729 41.2216C364.729 41.732 364.81 42.206 364.973 42.6435C365.135 43.081 365.385 43.4339 365.723 43.7024C366.061 43.9709 366.492 44.1051 367.016 44.1051ZM114.074 67V59.3636H115.207V60.517H115.287C115.426 60.1392 115.678 59.8326 116.043 59.5973C116.407 59.362 116.818 59.2443 117.276 59.2443C117.362 59.2443 117.469 59.246 117.599 59.2493C117.728 59.2526 117.826 59.2576 117.892 59.2642V60.4574C117.852 60.4474 117.761 60.4325 117.619 60.4126C117.479 60.3894 117.332 60.3778 117.176 60.3778C116.805 60.3778 116.473 60.4557 116.182 60.6115C115.893 60.764 115.665 60.9761 115.496 61.2479C115.33 61.5163 115.247 61.8229 115.247 62.1676V67H114.074ZM122.252 67.1591C121.516 67.1591 120.882 66.9967 120.348 66.6719C119.818 66.3438 119.408 65.8864 119.12 65.2997C118.835 64.7098 118.692 64.0237 118.692 63.2415C118.692 62.4593 118.835 61.7699 119.12 61.1733C119.408 60.5734 119.809 60.1061 120.323 59.7713C120.84 59.4332 121.443 59.2642 122.133 59.2642C122.531 59.2642 122.923 59.3305 123.311 59.4631C123.699 59.5956 124.052 59.8111 124.37 60.1094C124.688 60.4044 124.942 60.7955 125.131 61.2827C125.32 61.7699 125.414 62.3698 125.414 63.0824V63.5795H119.528V62.5653H124.221C124.221 62.1345 124.135 61.75 123.962 61.4119C123.793 61.0739 123.551 60.8071 123.237 60.6115C122.925 60.416 122.557 60.3182 122.133 60.3182C121.665 60.3182 121.261 60.4342 120.92 60.6662C120.582 60.8949 120.321 61.1932 120.139 61.5611C119.957 61.929 119.866 62.3234 119.866 62.7443V63.4205C119.866 63.9972 119.965 64.486 120.164 64.8871C120.366 65.2848 120.646 65.5881 121.004 65.7969C121.362 66.0024 121.778 66.1051 122.252 66.1051C122.56 66.1051 122.839 66.062 123.087 65.9759C123.339 65.8864 123.556 65.7538 123.739 65.5781C123.921 65.3991 124.062 65.1771 124.161 64.9119L125.295 65.2301C125.175 65.6146 124.975 65.9527 124.693 66.2443C124.411 66.5327 124.063 66.758 123.649 66.9205C123.235 67.0795 122.769 67.1591 122.252 67.1591ZM130.301 67.1591C129.585 67.1591 128.969 66.9901 128.452 66.652C127.935 66.3139 127.537 65.8482 127.259 65.255C126.98 64.6617 126.841 63.9839 126.841 63.2216C126.841 62.446 126.983 61.7616 127.268 61.1683C127.557 60.5717 127.958 60.1061 128.472 59.7713C128.989 59.4332 129.592 59.2642 130.281 59.2642C130.818 59.2642 131.302 59.3636 131.733 59.5625C132.164 59.7614 132.517 60.0398 132.792 60.3977C133.067 60.7557 133.238 61.1733 133.304 61.6506H132.131C132.041 61.3026 131.842 60.9943 131.534 60.7259C131.229 60.4541 130.818 60.3182 130.301 60.3182C129.844 60.3182 129.443 60.4375 129.098 60.6761C128.757 60.9115 128.49 61.2446 128.298 61.6754C128.109 62.103 128.014 62.6051 128.014 63.1818C128.014 63.7718 128.107 64.2855 128.293 64.723C128.482 65.1605 128.747 65.5002 129.088 65.7422C129.433 65.9841 129.837 66.1051 130.301 66.1051C130.606 66.1051 130.883 66.0521 131.131 65.946C131.38 65.84 131.59 65.6875 131.763 65.4886C131.935 65.2898 132.058 65.0511 132.131 64.7727H133.304C133.238 65.2235 133.074 65.6295 132.812 65.9908C132.553 66.3487 132.21 66.6338 131.783 66.8459C131.358 67.0547 130.865 67.1591 130.301 67.1591ZM136.192 62.4062V67H135.019V56.8182H136.192V60.5568H136.292C136.471 60.1624 136.739 59.8492 137.097 59.6172C137.459 59.3819 137.939 59.2642 138.539 59.2642C139.059 59.2642 139.515 59.3686 139.906 59.5774C140.297 59.7829 140.601 60.0994 140.816 60.527C141.035 60.9512 141.144 61.4915 141.144 62.1477V67H139.971V62.2273C139.971 61.6207 139.813 61.1518 139.499 60.8203C139.187 60.4856 138.754 60.3182 138.201 60.3182C137.817 60.3182 137.472 60.3994 137.167 60.5618C136.865 60.7242 136.627 60.9612 136.451 61.2727C136.279 61.5843 136.192 61.9621 136.192 62.4062ZM146.492 67.1591C145.757 67.1591 145.122 66.9967 144.588 66.6719C144.058 66.3438 143.649 65.8864 143.36 65.2997C143.075 64.7098 142.933 64.0237 142.933 63.2415C142.933 62.4593 143.075 61.7699 143.36 61.1733C143.649 60.5734 144.05 60.1061 144.563 59.7713C145.08 59.4332 145.684 59.2642 146.373 59.2642C146.771 59.2642 147.164 59.3305 147.551 59.4631C147.939 59.5956 148.292 59.8111 148.61 60.1094C148.928 60.4044 149.182 60.7955 149.371 61.2827C149.56 61.7699 149.654 62.3698 149.654 63.0824V63.5795H143.768V62.5653H148.461C148.461 62.1345 148.375 61.75 148.203 61.4119C148.034 61.0739 147.792 60.8071 147.477 60.6115C147.165 60.416 146.797 60.3182 146.373 60.3182C145.906 60.3182 145.501 60.4342 145.16 60.6662C144.822 60.8949 144.562 61.1932 144.379 61.5611C144.197 61.929 144.106 62.3234 144.106 62.7443V63.4205C144.106 63.9972 144.205 64.486 144.404 64.8871C144.606 65.2848 144.887 65.5881 145.244 65.7969C145.602 66.0024 146.018 66.1051 146.492 66.1051C146.801 66.1051 147.079 66.062 147.328 65.9759C147.579 65.8864 147.797 65.7538 147.979 65.5781C148.161 65.3991 148.302 65.1771 148.401 64.9119L149.535 65.2301C149.416 65.6146 149.215 65.9527 148.933 66.2443C148.652 66.5327 148.304 66.758 147.889 66.9205C147.475 67.0795 147.009 67.1591 146.492 67.1591ZM153.686 67.179C153.202 67.179 152.763 67.0878 152.369 66.9055C151.974 66.7199 151.661 66.4531 151.429 66.1051C151.197 65.7538 151.081 65.3295 151.081 64.8324C151.081 64.3949 151.167 64.0402 151.34 63.7685C151.512 63.4934 151.742 63.2779 152.031 63.1222C152.319 62.9664 152.637 62.8504 152.985 62.7741C153.337 62.6946 153.69 62.6316 154.044 62.5852C154.508 62.5256 154.884 62.4808 155.173 62.451C155.464 62.4179 155.677 62.3632 155.809 62.2869C155.945 62.2107 156.013 62.0781 156.013 61.8892V61.8494C156.013 61.3589 155.879 60.9777 155.61 60.706C155.345 60.4342 154.942 60.2983 154.402 60.2983C153.842 60.2983 153.403 60.4209 153.085 60.6662C152.767 60.9115 152.543 61.1733 152.414 61.4517L151.3 61.054C151.499 60.59 151.764 60.2287 152.095 59.9702C152.43 59.7083 152.795 59.526 153.189 59.4233C153.587 59.3172 153.978 59.2642 154.362 59.2642C154.608 59.2642 154.889 59.294 155.208 59.3537C155.529 59.41 155.839 59.5277 156.137 59.7067C156.439 59.8857 156.689 60.1558 156.888 60.517C157.087 60.8783 157.186 61.3622 157.186 61.9688V67H156.013V65.9659H155.953C155.874 66.1316 155.741 66.3089 155.556 66.4979C155.37 66.6868 155.123 66.8475 154.815 66.9801C154.507 67.1127 154.13 67.179 153.686 67.179ZM153.865 66.125C154.329 66.125 154.72 66.0339 155.039 65.8516C155.36 65.6693 155.602 65.4339 155.764 65.1456C155.93 64.8572 156.013 64.554 156.013 64.2358V63.1619C155.963 63.2216 155.854 63.2763 155.685 63.326C155.519 63.3724 155.327 63.4138 155.108 63.4503C154.893 63.4834 154.682 63.5133 154.477 63.5398C154.275 63.563 154.11 63.5829 153.985 63.5994C153.68 63.6392 153.395 63.7038 153.129 63.7933C152.868 63.8795 152.655 64.0104 152.493 64.1861C152.334 64.3584 152.254 64.5937 152.254 64.892C152.254 65.2997 152.405 65.608 152.707 65.8168C153.012 66.0223 153.398 66.125 153.865 66.125ZM153.905 58.3295L155.118 56.0227H156.49L154.939 58.3295H153.905ZM163.703 62.0881V63.1818H159.248V62.0881H163.703ZM166.941 56.8182V67H165.767V56.8182H166.941ZM171.337 67.179C170.853 67.179 170.414 67.0878 170.019 66.9055C169.625 66.7199 169.312 66.4531 169.08 66.1051C168.848 65.7538 168.732 65.3295 168.732 64.8324C168.732 64.3949 168.818 64.0402 168.99 63.7685C169.162 63.4934 169.393 63.2779 169.681 63.1222C169.969 62.9664 170.288 62.8504 170.636 62.7741C170.987 62.6946 171.34 62.6316 171.695 62.5852C172.159 62.5256 172.535 62.4808 172.823 62.451C173.115 62.4179 173.327 62.3632 173.46 62.2869C173.595 62.2107 173.663 62.0781 173.663 61.8892V61.8494C173.663 61.3589 173.529 60.9777 173.261 60.706C172.996 60.4342 172.593 60.2983 172.053 60.2983C171.492 60.2983 171.053 60.4209 170.735 60.6662C170.417 60.9115 170.193 61.1733 170.064 61.4517L168.95 61.054C169.149 60.59 169.414 60.2287 169.746 59.9702C170.08 59.7083 170.445 59.526 170.839 59.4233C171.237 59.3172 171.628 59.2642 172.013 59.2642C172.258 59.2642 172.54 59.294 172.858 59.3537C173.179 59.41 173.489 59.5277 173.788 59.7067C174.089 59.8857 174.339 60.1558 174.538 60.517C174.737 60.8783 174.837 61.3622 174.837 61.9688V67H173.663V65.9659H173.604C173.524 66.1316 173.392 66.3089 173.206 66.4979C173.02 66.6868 172.773 66.8475 172.465 66.9801C172.157 67.1127 171.781 67.179 171.337 67.179ZM171.516 66.125C171.98 66.125 172.371 66.0339 172.689 65.8516C173.01 65.6693 173.252 65.4339 173.415 65.1456C173.58 64.8572 173.663 64.554 173.663 64.2358V63.1619C173.614 63.2216 173.504 63.2763 173.335 63.326C173.17 63.3724 172.977 63.4138 172.759 63.4503C172.543 63.4834 172.333 63.5133 172.127 63.5398C171.925 63.563 171.761 63.5829 171.635 63.5994C171.33 63.6392 171.045 63.7038 170.78 63.7933C170.518 63.8795 170.306 64.0104 170.143 64.1861C169.984 64.3584 169.905 64.5937 169.905 64.892C169.905 65.2997 170.056 65.608 170.357 65.8168C170.662 66.0223 171.048 66.125 171.516 66.125ZM184.018 67.1591C183.302 67.1591 182.686 66.9901 182.169 66.652C181.651 66.3139 181.254 65.8482 180.975 65.255C180.697 64.6617 180.558 63.9839 180.558 63.2216C180.558 62.446 180.7 61.7616 180.985 61.1683C181.274 60.5717 181.675 60.1061 182.188 59.7713C182.705 59.4332 183.309 59.2642 183.998 59.2642C184.535 59.2642 185.019 59.3636 185.45 59.5625C185.881 59.7614 186.234 60.0398 186.509 60.3977C186.784 60.7557 186.954 61.1733 187.021 61.6506H185.847C185.758 61.3026 185.559 60.9943 185.251 60.7259C184.946 60.4541 184.535 60.3182 184.018 60.3182C183.561 60.3182 183.16 60.4375 182.815 60.6761C182.473 60.9115 182.207 61.2446 182.014 61.6754C181.825 62.103 181.731 62.6051 181.731 63.1818C181.731 63.7718 181.824 64.2855 182.009 64.723C182.198 65.1605 182.463 65.5002 182.805 65.7422C183.15 65.9841 183.554 66.1051 184.018 66.1051C184.323 66.1051 184.6 66.0521 184.848 65.946C185.097 65.84 185.307 65.6875 185.48 65.4886C185.652 65.2898 185.775 65.0511 185.847 64.7727H187.021C186.954 65.2235 186.79 65.6295 186.529 65.9908C186.27 66.3487 185.927 66.6338 185.499 66.8459C185.075 67.0547 184.581 67.1591 184.018 67.1591ZM191.838 67.1591C191.149 67.1591 190.544 66.995 190.024 66.6669C189.507 66.3388 189.102 65.8797 188.811 65.2898C188.522 64.6998 188.378 64.0104 188.378 63.2216C188.378 62.4261 188.522 61.7318 188.811 61.1385C189.102 60.5452 189.507 60.0845 190.024 59.7564C190.544 59.4283 191.149 59.2642 191.838 59.2642C192.528 59.2642 193.131 59.4283 193.648 59.7564C194.168 60.0845 194.573 60.5452 194.861 61.1385C195.153 61.7318 195.298 62.4261 195.298 63.2216C195.298 64.0104 195.153 64.6998 194.861 65.2898C194.573 65.8797 194.168 66.3388 193.648 66.6669C193.131 66.995 192.528 67.1591 191.838 67.1591ZM191.838 66.1051C192.362 66.1051 192.793 65.9709 193.131 65.7024C193.469 65.4339 193.719 65.081 193.882 64.6435C194.044 64.206 194.125 63.732 194.125 63.2216C194.125 62.7112 194.044 62.2356 193.882 61.7947C193.719 61.3539 193.469 60.9976 193.131 60.7259C192.793 60.4541 192.362 60.3182 191.838 60.3182C191.315 60.3182 190.884 60.4541 190.546 60.7259C190.208 60.9976 189.957 61.3539 189.795 61.7947C189.633 62.2356 189.551 62.7112 189.551 63.2216C189.551 63.732 189.633 64.206 189.795 64.6435C189.957 65.081 190.208 65.4339 190.546 65.7024C190.884 65.9709 191.315 66.1051 191.838 66.1051ZM197.089 67V59.3636H198.223V60.5568H198.322C198.482 60.1491 198.738 59.8326 199.093 59.6072C199.448 59.3786 199.874 59.2642 200.371 59.2642C200.875 59.2642 201.294 59.3786 201.629 59.6072C201.967 59.8326 202.23 60.1491 202.419 60.5568H202.499C202.694 60.1624 202.987 59.8492 203.379 59.6172C203.77 59.3819 204.239 59.2642 204.786 59.2642C205.468 59.2642 206.027 59.478 206.461 59.9055C206.895 60.3298 207.112 60.991 207.112 61.8892V67H205.939V61.8892C205.939 61.3258 205.785 60.9231 205.477 60.6811C205.168 60.4392 204.805 60.3182 204.388 60.3182C203.851 60.3182 203.435 60.4806 203.14 60.8054C202.845 61.1269 202.697 61.5346 202.697 62.0284V67H201.504V61.7699C201.504 61.3357 201.363 60.986 201.082 60.7209C200.8 60.4524 200.437 60.3182 199.993 60.3182C199.688 60.3182 199.403 60.3994 199.138 60.5618C198.876 60.7242 198.664 60.9496 198.501 61.2379C198.342 61.523 198.263 61.8527 198.263 62.2273V67H197.089ZM216.297 67.1591C215.608 67.1591 215.003 66.995 214.483 66.6669C213.966 66.3388 213.561 65.8797 213.27 65.2898C212.981 64.6998 212.837 64.0104 212.837 63.2216C212.837 62.4261 212.981 61.7318 213.27 61.1385C213.561 60.5452 213.966 60.0845 214.483 59.7564C215.003 59.4283 215.608 59.2642 216.297 59.2642C216.987 59.2642 217.59 59.4283 218.107 59.7564C218.627 60.0845 219.032 60.5452 219.32 61.1385C219.612 61.7318 219.757 62.4261 219.757 63.2216C219.757 64.0104 219.612 64.6998 219.32 65.2898C219.032 65.8797 218.627 66.3388 218.107 66.6669C217.59 66.995 216.987 67.1591 216.297 67.1591ZM216.297 66.1051C216.821 66.1051 217.252 65.9709 217.59 65.7024C217.928 65.4339 218.178 65.081 218.341 64.6435C218.503 64.206 218.584 63.732 218.584 63.2216C218.584 62.7112 218.503 62.2356 218.341 61.7947C218.178 61.3539 217.928 60.9976 217.59 60.7259C217.252 60.4541 216.821 60.3182 216.297 60.3182C215.774 60.3182 215.343 60.4541 215.005 60.7259C214.667 60.9976 214.416 61.3539 214.254 61.7947C214.092 62.2356 214.01 62.7112 214.01 63.2216C214.01 63.732 214.092 64.206 214.254 64.6435C214.416 65.081 214.667 65.4339 215.005 65.7024C215.343 65.9709 215.774 66.1051 216.297 66.1051ZM226.958 61.0739L225.904 61.3722C225.837 61.1965 225.74 61.0258 225.61 60.8601C225.484 60.6911 225.312 60.5518 225.093 60.4425C224.874 60.3331 224.594 60.2784 224.253 60.2784C223.786 60.2784 223.396 60.3861 223.085 60.6016C222.776 60.8137 222.622 61.0838 222.622 61.4119C222.622 61.7036 222.728 61.9339 222.941 62.103C223.153 62.272 223.484 62.4129 223.935 62.5256L225.068 62.804C225.751 62.9697 226.26 63.2232 226.595 63.5646C226.929 63.9027 227.097 64.3385 227.097 64.8722C227.097 65.3097 226.971 65.7008 226.719 66.0455C226.47 66.3902 226.122 66.6619 225.675 66.8608C225.227 67.0597 224.707 67.1591 224.114 67.1591C223.335 67.1591 222.69 66.9901 222.18 66.652C221.669 66.3139 221.346 65.8201 221.21 65.1705L222.324 64.892C222.43 65.303 222.631 65.6113 222.926 65.8168C223.224 66.0223 223.613 66.125 224.094 66.125C224.641 66.125 225.075 66.009 225.396 65.777C225.721 65.5417 225.884 65.2599 225.884 64.9318C225.884 64.6667 225.791 64.4446 225.605 64.2656C225.42 64.0833 225.135 63.9474 224.75 63.858L223.477 63.5597C222.778 63.3939 222.264 63.1371 221.936 62.7891C221.611 62.4377 221.449 61.9986 221.449 61.4716C221.449 61.0407 221.57 60.6596 221.812 60.3281C222.057 59.9967 222.39 59.7365 222.811 59.5476C223.235 59.3587 223.716 59.2642 224.253 59.2642C225.009 59.2642 225.602 59.4299 226.033 59.7614C226.467 60.0928 226.775 60.5303 226.958 61.0739ZM114.074 89V81.3636H115.247V89H114.074ZM114.67 80.0909C114.442 80.0909 114.245 80.013 114.079 79.8572C113.916 79.7015 113.835 79.5142 113.835 79.2955C113.835 79.0767 113.916 78.8894 114.079 78.7337C114.245 78.5779 114.442 78.5 114.67 78.5C114.899 78.5 115.095 78.5779 115.257 78.7337C115.423 78.8894 115.506 79.0767 115.506 79.2955C115.506 79.5142 115.423 79.7015 115.257 79.8572C115.095 80.013 114.899 80.0909 114.67 80.0909ZM118.569 84.4062V89H117.396V81.3636H118.53V82.5568H118.629C118.808 82.169 119.08 81.8575 119.444 81.6222C119.809 81.3835 120.28 81.2642 120.856 81.2642C121.373 81.2642 121.826 81.3703 122.214 81.5824C122.601 81.7912 122.903 82.1094 123.118 82.5369C123.334 82.9612 123.442 83.4981 123.442 84.1477V89H122.268V84.2273C122.268 83.6274 122.113 83.16 121.801 82.8253C121.489 82.4872 121.062 82.3182 120.518 82.3182C120.144 82.3182 119.809 82.3994 119.514 82.5618C119.222 82.7242 118.992 82.9612 118.823 83.2727C118.654 83.5843 118.569 83.9621 118.569 84.4062ZM128.668 92.0227C128.101 92.0227 127.614 91.9498 127.206 91.804C126.799 91.6615 126.459 91.4725 126.187 91.2372C125.919 91.0052 125.705 90.7566 125.546 90.4915L126.48 89.8352C126.587 89.9744 126.721 90.1335 126.883 90.3125C127.046 90.4948 127.268 90.6522 127.549 90.7848C127.834 90.9207 128.207 90.9886 128.668 90.9886C129.284 90.9886 129.793 90.8395 130.194 90.5412C130.595 90.2429 130.796 89.7756 130.796 89.1392V87.5881H130.696C130.61 87.7273 130.488 87.8996 130.328 88.1051C130.173 88.3073 129.947 88.4879 129.652 88.647C129.361 88.8028 128.966 88.8807 128.469 88.8807C127.853 88.8807 127.299 88.7348 126.809 88.4432C126.321 88.1515 125.935 87.7273 125.65 87.1705C125.368 86.6136 125.228 85.9375 125.228 85.142C125.228 84.3598 125.365 83.6787 125.64 83.0987C125.915 82.5154 126.298 82.0646 126.789 81.7464C127.279 81.425 127.846 81.2642 128.489 81.2642C128.986 81.2642 129.381 81.3471 129.672 81.5128C129.967 81.6752 130.193 81.8608 130.348 82.0696C130.507 82.2751 130.63 82.4441 130.716 82.5767H130.836V81.3636H131.969V89.2188C131.969 89.875 131.82 90.4086 131.522 90.8196C131.227 91.2339 130.829 91.5372 130.328 91.7294C129.831 91.925 129.278 92.0227 128.668 92.0227ZM128.628 87.8267C129.099 87.8267 129.497 87.719 129.821 87.5036C130.146 87.2881 130.393 86.9782 130.562 86.5739C130.731 86.1695 130.816 85.6856 130.816 85.1222C130.816 84.572 130.733 84.0864 130.567 83.6655C130.401 83.2446 130.156 82.9148 129.831 82.6761C129.507 82.4375 129.105 82.3182 128.628 82.3182C128.131 82.3182 127.717 82.4441 127.385 82.696C127.057 82.9479 126.81 83.286 126.645 83.7102C126.482 84.1345 126.401 84.6051 126.401 85.1222C126.401 85.6525 126.484 86.1214 126.65 86.5291C126.819 86.9335 127.067 87.2517 127.395 87.4837C127.727 87.7124 128.138 87.8267 128.628 87.8267ZM134.117 89V81.3636H135.25V82.517H135.33C135.469 82.1392 135.721 81.8326 136.086 81.5973C136.45 81.362 136.861 81.2443 137.319 81.2443C137.405 81.2443 137.512 81.246 137.642 81.2493C137.771 81.2526 137.869 81.2576 137.935 81.2642V82.4574C137.895 82.4474 137.804 82.4325 137.662 82.4126C137.522 82.3894 137.375 82.3778 137.219 82.3778C136.848 82.3778 136.516 82.4557 136.225 82.6115C135.936 82.764 135.708 82.9761 135.539 83.2479C135.373 83.5163 135.29 83.8229 135.29 84.1676V89H134.117ZM142.295 89.1591C141.559 89.1591 140.925 88.9967 140.391 88.6719C139.861 88.3438 139.451 87.8864 139.163 87.2997C138.878 86.7098 138.735 86.0237 138.735 85.2415C138.735 84.4593 138.878 83.7699 139.163 83.1733C139.451 82.5734 139.852 82.1061 140.366 81.7713C140.883 81.4332 141.486 81.2642 142.176 81.2642C142.574 81.2642 142.966 81.3305 143.354 81.4631C143.742 81.5956 144.095 81.8111 144.413 82.1094C144.731 82.4044 144.985 82.7955 145.174 83.2827C145.363 83.7699 145.457 84.3698 145.457 85.0824V85.5795H139.571V84.5653H144.264C144.264 84.1345 144.178 83.75 144.005 83.4119C143.836 83.0739 143.594 82.8071 143.279 82.6115C142.968 82.416 142.6 82.3182 142.176 82.3182C141.708 82.3182 141.304 82.4342 140.963 82.6662C140.625 82.8949 140.364 83.1932 140.182 83.5611C140 83.929 139.909 84.3234 139.909 84.7443V85.4205C139.909 85.9972 140.008 86.486 140.207 86.8871C140.409 87.2848 140.689 87.5881 141.047 87.7969C141.405 88.0024 141.821 88.1051 142.295 88.1051C142.603 88.1051 142.882 88.062 143.13 87.9759C143.382 87.8864 143.599 87.7538 143.782 87.5781C143.964 87.3991 144.105 87.1771 144.204 86.9119L145.338 87.2301C145.218 87.6146 145.018 87.9527 144.736 88.2443C144.454 88.5327 144.106 88.758 143.692 88.9205C143.278 89.0795 142.812 89.1591 142.295 89.1591ZM150.125 89.1591C149.489 89.1591 148.927 88.9983 148.44 88.6768C147.953 88.352 147.572 87.8946 147.297 87.3047C147.021 86.7114 146.884 86.0104 146.884 85.2017C146.884 84.3996 147.021 83.7036 147.297 83.1136C147.572 82.5237 147.954 82.0679 148.445 81.7464C148.935 81.425 149.502 81.2642 150.145 81.2642C150.642 81.2642 151.035 81.3471 151.324 81.5128C151.615 81.6752 151.837 81.8608 151.99 82.0696C152.145 82.2751 152.266 82.4441 152.353 82.5767H152.452V78.8182H153.625V89H152.492V87.8267H152.353C152.266 87.9659 152.144 88.1416 151.985 88.3537C151.826 88.5625 151.599 88.7498 151.304 88.9155C151.009 89.0779 150.616 89.1591 150.125 89.1591ZM150.284 88.1051C150.755 88.1051 151.153 87.9825 151.478 87.7372C151.802 87.4886 152.049 87.1456 152.218 86.7081C152.387 86.2673 152.472 85.7585 152.472 85.1818C152.472 84.6117 152.389 84.1129 152.223 83.6854C152.058 83.2545 151.812 82.9197 151.488 82.6811C151.163 82.4392 150.762 82.3182 150.284 82.3182C149.787 82.3182 149.373 82.4458 149.042 82.701C148.713 82.9529 148.467 83.2959 148.301 83.7301C148.138 84.161 148.057 84.6449 148.057 85.1818C148.057 85.7254 148.14 86.2192 148.306 86.6634C148.475 87.1042 148.723 87.4555 149.051 87.7173C149.383 87.9759 149.794 88.1051 150.284 88.1051ZM155.937 89V81.3636H157.11V89H155.937ZM156.534 80.0909C156.305 80.0909 156.108 80.013 155.942 79.8572C155.78 79.7015 155.699 79.5142 155.699 79.2955C155.699 79.0767 155.78 78.8894 155.942 78.7337C156.108 78.5779 156.305 78.5 156.534 78.5C156.762 78.5 156.958 78.5779 157.12 78.7337C157.286 78.8894 157.369 79.0767 157.369 79.2955C157.369 79.5142 157.286 79.7015 157.12 79.8572C156.958 80.013 156.762 80.0909 156.534 80.0909ZM162.461 89.1591C161.725 89.1591 161.091 88.9967 160.557 88.6719C160.027 88.3438 159.617 87.8864 159.329 87.2997C159.044 86.7098 158.901 86.0237 158.901 85.2415C158.901 84.4593 159.044 83.7699 159.329 83.1733C159.617 82.5734 160.018 82.1061 160.532 81.7713C161.049 81.4332 161.652 81.2642 162.342 81.2642C162.74 81.2642 163.132 81.3305 163.52 81.4631C163.908 81.5956 164.261 81.8111 164.579 82.1094C164.897 82.4044 165.151 82.7955 165.34 83.2827C165.529 83.7699 165.623 84.3698 165.623 85.0824V85.5795H159.737V84.5653H164.43C164.43 84.1345 164.344 83.75 164.171 83.4119C164.002 83.0739 163.76 82.8071 163.445 82.6115C163.134 82.416 162.766 82.3182 162.342 82.3182C161.874 82.3182 161.47 82.4342 161.129 82.6662C160.791 82.8949 160.53 83.1932 160.348 83.5611C160.166 83.929 160.075 84.3234 160.075 84.7443V85.4205C160.075 85.9972 160.174 86.486 160.373 86.8871C160.575 87.2848 160.855 87.5881 161.213 87.7969C161.571 88.0024 161.987 88.1051 162.461 88.1051C162.769 88.1051 163.048 88.062 163.296 87.9759C163.548 87.8864 163.765 87.7538 163.948 87.5781C164.13 87.3991 164.271 87.1771 164.37 86.9119L165.504 87.2301C165.384 87.6146 165.184 87.9527 164.902 88.2443C164.62 88.5327 164.272 88.758 163.858 88.9205C163.444 89.0795 162.978 89.1591 162.461 89.1591ZM168.581 84.4062V89H167.408V81.3636H168.541V82.5568H168.641C168.82 82.169 169.092 81.8575 169.456 81.6222C169.821 81.3835 170.291 81.2642 170.868 81.2642C171.385 81.2642 171.838 81.3703 172.225 81.5824C172.613 81.7912 172.915 82.1094 173.13 82.5369C173.346 82.9612 173.453 83.4981 173.453 84.1477V89H172.28V84.2273C172.28 83.6274 172.124 83.16 171.813 82.8253C171.501 82.4872 171.074 82.3182 170.53 82.3182C170.155 82.3182 169.821 82.3994 169.526 82.5618C169.234 82.7242 169.004 82.9612 168.835 83.2727C168.666 83.5843 168.581 83.9621 168.581 84.4062ZM178.918 81.3636V82.358H174.961V81.3636H178.918ZM176.114 79.5341H177.288V86.8125C177.288 87.1439 177.336 87.3925 177.432 87.5582C177.531 87.7206 177.657 87.83 177.81 87.8864C177.965 87.9394 178.129 87.9659 178.302 87.9659C178.431 87.9659 178.537 87.9593 178.62 87.946C178.703 87.9295 178.769 87.9162 178.819 87.9062L179.058 88.9602C178.978 88.9901 178.867 89.0199 178.724 89.0497C178.582 89.0829 178.401 89.0994 178.183 89.0994C177.851 89.0994 177.526 89.0282 177.208 88.8857C176.893 88.7431 176.631 88.526 176.423 88.2344C176.217 87.9427 176.114 87.5748 176.114 87.1307V79.5341ZM183.803 89.1591C183.067 89.1591 182.432 88.9967 181.899 88.6719C181.368 88.3438 180.959 87.8864 180.671 87.2997C180.386 86.7098 180.243 86.0237 180.243 85.2415C180.243 84.4593 180.386 83.7699 180.671 83.1733C180.959 82.5734 181.36 82.1061 181.874 81.7713C182.391 81.4332 182.994 81.2642 183.684 81.2642C184.081 81.2642 184.474 81.3305 184.862 81.4631C185.25 81.5956 185.603 81.8111 185.921 82.1094C186.239 82.4044 186.493 82.7955 186.681 83.2827C186.87 83.7699 186.965 84.3698 186.965 85.0824V85.5795H181.078V84.5653H185.772C185.772 84.1345 185.685 83.75 185.513 83.4119C185.344 83.0739 185.102 82.8071 184.787 82.6115C184.476 82.416 184.108 82.3182 183.684 82.3182C183.216 82.3182 182.812 82.4342 182.471 82.6662C182.132 82.8949 181.872 83.1932 181.69 83.5611C181.508 83.929 181.417 84.3234 181.417 84.7443V85.4205C181.417 85.9972 181.516 86.486 181.715 86.8871C181.917 87.2848 182.197 87.5881 182.555 87.7969C182.913 88.0024 183.329 88.1051 183.803 88.1051C184.111 88.1051 184.39 88.062 184.638 87.9759C184.89 87.8864 185.107 87.7538 185.289 87.5781C185.472 87.3991 185.613 87.1771 185.712 86.9119L186.846 87.2301C186.726 87.6146 186.526 87.9527 186.244 88.2443C185.962 88.5327 185.614 88.758 185.2 88.9205C184.786 89.0795 184.32 89.1591 183.803 89.1591ZM194.159 83.0739L193.105 83.3722C193.038 83.1965 192.941 83.0258 192.811 82.8601C192.685 82.6911 192.513 82.5518 192.294 82.4425C192.076 82.3331 191.796 82.2784 191.454 82.2784C190.987 82.2784 190.597 82.3861 190.286 82.6016C189.978 82.8137 189.824 83.0838 189.824 83.4119C189.824 83.7036 189.93 83.9339 190.142 84.103C190.354 84.272 190.685 84.4129 191.136 84.5256L192.27 84.804C192.952 84.9697 193.461 85.2232 193.796 85.5646C194.131 85.9027 194.298 86.3385 194.298 86.8722C194.298 87.3097 194.172 87.7008 193.92 88.0455C193.672 88.3902 193.324 88.6619 192.876 88.8608C192.429 89.0597 191.908 89.1591 191.315 89.1591C190.536 89.1591 189.891 88.9901 189.381 88.652C188.871 88.3139 188.547 87.8201 188.412 87.1705L189.525 86.892C189.631 87.303 189.832 87.6113 190.127 87.8168C190.425 88.0223 190.815 88.125 191.295 88.125C191.842 88.125 192.276 88.009 192.598 87.777C192.922 87.5417 193.085 87.2599 193.085 86.9318C193.085 86.6667 192.992 86.4446 192.806 86.2656C192.621 86.0833 192.336 85.9474 191.951 85.858L190.679 85.5597C189.979 85.3939 189.466 85.1371 189.137 84.7891C188.813 84.4377 188.65 83.9986 188.65 83.4716C188.65 83.0407 188.771 82.6596 189.013 82.3281C189.258 81.9967 189.592 81.7365 190.012 81.5476C190.437 81.3587 190.917 81.2642 191.454 81.2642C192.21 81.2642 192.803 81.4299 193.234 81.7614C193.668 82.0928 193.976 82.5303 194.159 83.0739ZM196.919 89.0795C196.674 89.0795 196.463 88.9917 196.288 88.8161C196.112 88.6404 196.024 88.4299 196.024 88.1847C196.024 87.9394 196.112 87.7289 196.288 87.5533C196.463 87.3776 196.674 87.2898 196.919 87.2898C197.164 87.2898 197.375 87.3776 197.551 87.5533C197.726 87.7289 197.814 87.9394 197.814 88.1847C197.814 88.3471 197.773 88.4962 197.69 88.6321C197.61 88.768 197.503 88.8774 197.367 88.9602C197.234 89.0398 197.085 89.0795 196.919 89.0795Z" fill="#828282"/>
<path d="M232.726 67V59.3636H234.153V60.6065H234.247C234.406 60.1856 234.666 59.8575 235.028 59.6222C235.389 59.3835 235.821 59.2642 236.325 59.2642C236.836 59.2642 237.263 59.3835 237.608 59.6222C237.956 59.8608 238.213 60.1889 238.379 60.6065H238.458C238.64 60.1989 238.93 59.8741 239.328 59.6321C239.726 59.3868 240.2 59.2642 240.75 59.2642C241.443 59.2642 242.008 59.4813 242.445 59.9155C242.886 60.3497 243.107 61.0043 243.107 61.8793V67H241.62V62.0185C241.62 61.5014 241.479 61.1269 241.197 60.8949C240.916 60.6629 240.579 60.5469 240.188 60.5469C239.704 60.5469 239.328 60.696 239.06 60.9943C238.791 61.2893 238.657 61.6688 238.657 62.1328V67H237.175V61.924C237.175 61.5097 237.046 61.1766 236.788 60.9247C236.529 60.6728 236.193 60.5469 235.778 60.5469C235.497 60.5469 235.237 60.6214 234.998 60.7706C234.763 60.9164 234.572 61.1203 234.426 61.3821C234.284 61.6439 234.212 61.9472 234.212 62.2919V67H232.726ZM248.39 67.1541C247.638 67.1541 246.99 66.9934 246.446 66.6719C245.906 66.3471 245.488 65.8913 245.193 65.3047C244.902 64.7147 244.756 64.0237 244.756 63.2315C244.756 62.4493 244.902 61.7599 245.193 61.1634C245.488 60.5668 245.899 60.1011 246.426 59.7663C246.957 59.4316 247.576 59.2642 248.286 59.2642C248.717 59.2642 249.134 59.3355 249.539 59.478C249.943 59.6205 250.306 59.8442 250.627 60.1491C250.949 60.4541 251.202 60.8501 251.388 61.3374C251.574 61.8213 251.666 62.4096 251.666 63.1023V63.6293H245.596V62.5156H250.21C250.21 62.1245 250.13 61.7782 249.971 61.4766C249.812 61.1716 249.588 60.9313 249.3 60.7557C249.015 60.58 248.68 60.4922 248.296 60.4922C247.878 60.4922 247.513 60.5949 247.202 60.8004C246.894 61.0026 246.655 61.2678 246.486 61.5959C246.32 61.9207 246.237 62.2737 246.237 62.6548V63.5249C246.237 64.0353 246.327 64.4695 246.506 64.8274C246.688 65.1854 246.942 65.4588 247.267 65.6477C247.591 65.8333 247.971 65.9261 248.405 65.9261C248.687 65.9261 248.944 65.8864 249.176 65.8068C249.408 65.724 249.608 65.6013 249.777 65.4389C249.946 65.2765 250.075 65.076 250.165 64.8374L251.572 65.0909C251.459 65.5052 251.257 65.8681 250.965 66.1797C250.677 66.4879 250.314 66.7282 249.877 66.9006C249.442 67.0696 248.947 67.1541 248.39 67.1541ZM254.802 56.8182V67H253.316V56.8182H254.802ZM258.289 62.4659V67H256.802V56.8182H258.269V60.6065H258.363C258.542 60.1955 258.816 59.8691 259.183 59.6271C259.551 59.3852 260.032 59.2642 260.625 59.2642C261.149 59.2642 261.606 59.3719 261.997 59.5874C262.392 59.8028 262.697 60.1243 262.912 60.5518C263.131 60.9761 263.24 61.5064 263.24 62.1428V67H261.754V62.3217C261.754 61.7616 261.61 61.3274 261.321 61.0192C261.033 60.7076 260.632 60.5518 260.118 60.5518C259.767 60.5518 259.452 60.6264 259.173 60.7756C258.898 60.9247 258.681 61.1435 258.522 61.4318C258.366 61.7169 258.289 62.0616 258.289 62.4659ZM268.441 67.1541C267.725 67.1541 267.1 66.9901 266.566 66.6619C266.033 66.3338 265.618 65.8748 265.323 65.2848C265.028 64.6948 264.881 64.0054 264.881 63.2166C264.881 62.4245 265.028 61.7318 265.323 61.1385C265.618 60.5452 266.033 60.0845 266.566 59.7564C267.1 59.4283 267.725 59.2642 268.441 59.2642C269.156 59.2642 269.781 59.4283 270.315 59.7564C270.848 60.0845 271.263 60.5452 271.558 61.1385C271.853 61.7318 272 62.4245 272 63.2166C272 64.0054 271.853 64.6948 271.558 65.2848C271.263 65.8748 270.848 66.3338 270.315 66.6619C269.781 66.9901 269.156 67.1541 268.441 67.1541ZM268.445 65.9062C268.91 65.9062 269.294 65.7836 269.599 65.5384C269.904 65.2931 270.129 64.9666 270.275 64.5589C270.424 64.1513 270.499 63.7022 270.499 63.2116C270.499 62.7244 270.424 62.277 270.275 61.8693C270.129 61.4583 269.904 61.1286 269.599 60.88C269.294 60.6314 268.91 60.5071 268.445 60.5071C267.978 60.5071 267.59 60.6314 267.282 60.88C266.977 61.1286 266.75 61.4583 266.601 61.8693C266.455 62.277 266.382 62.7244 266.382 63.2116C266.382 63.7022 266.455 64.1513 266.601 64.5589C266.75 64.9666 266.977 65.2931 267.282 65.5384C267.59 65.7836 267.978 65.9062 268.445 65.9062ZM273.659 67V59.3636H275.096V60.5767H275.176C275.315 60.1657 275.56 59.8426 275.912 59.6072C276.266 59.3686 276.667 59.2493 277.115 59.2493C277.208 59.2493 277.317 59.2526 277.443 59.2592C277.572 59.2659 277.673 59.2741 277.746 59.2841V60.706C277.686 60.6894 277.58 60.6712 277.428 60.6513C277.275 60.6281 277.123 60.6165 276.971 60.6165C276.619 60.6165 276.306 60.6911 276.031 60.8402C275.759 60.986 275.544 61.1899 275.385 61.4517C275.225 61.7102 275.146 62.0052 275.146 62.3366V67H273.659ZM282.05 67.1541C281.298 67.1541 280.65 66.9934 280.106 66.6719C279.566 66.3471 279.148 65.8913 278.854 65.3047C278.562 64.7147 278.416 64.0237 278.416 63.2315C278.416 62.4493 278.562 61.7599 278.854 61.1634C279.148 60.5668 279.559 60.1011 280.086 59.7663C280.617 59.4316 281.237 59.2642 281.946 59.2642C282.377 59.2642 282.794 59.3355 283.199 59.478C283.603 59.6205 283.966 59.8442 284.287 60.1491C284.609 60.4541 284.863 60.8501 285.048 61.3374C285.234 61.8213 285.327 62.4096 285.327 63.1023V63.6293H279.256V62.5156H283.87C283.87 62.1245 283.79 61.7782 283.631 61.4766C283.472 61.1716 283.248 60.9313 282.96 60.7557C282.675 60.58 282.34 60.4922 281.956 60.4922C281.538 60.4922 281.174 60.5949 280.862 60.8004C280.554 61.0026 280.315 61.2678 280.146 61.5959C279.98 61.9207 279.898 62.2737 279.898 62.6548V63.5249C279.898 64.0353 279.987 64.4695 280.166 64.8274C280.348 65.1854 280.602 65.4588 280.927 65.6477C281.251 65.8333 281.631 65.9261 282.065 65.9261C282.347 65.9261 282.604 65.8864 282.836 65.8068C283.068 65.724 283.268 65.6013 283.437 65.4389C283.606 65.2765 283.736 65.076 283.825 64.8374L285.232 65.0909C285.119 65.5052 284.917 65.8681 284.626 66.1797C284.337 66.4879 283.974 66.7282 283.537 66.9006C283.103 67.0696 282.607 67.1541 282.05 67.1541ZM292.698 61.228L291.351 61.4666C291.295 61.2943 291.205 61.1302 291.082 60.9744C290.963 60.8187 290.801 60.6911 290.595 60.5916C290.39 60.4922 290.133 60.4425 289.825 60.4425C289.404 60.4425 289.052 60.5369 288.771 60.7259C288.489 60.9115 288.348 61.1518 288.348 61.4467C288.348 61.7019 288.442 61.9074 288.631 62.0632C288.82 62.219 289.125 62.3466 289.546 62.446L290.759 62.7244C291.462 62.8868 291.986 63.1371 292.33 63.4751C292.675 63.8132 292.847 64.2524 292.847 64.7926C292.847 65.25 292.715 65.6577 292.45 66.0156C292.188 66.3703 291.821 66.6487 291.351 66.8509C290.884 67.053 290.342 67.1541 289.725 67.1541C288.87 67.1541 288.172 66.9718 287.632 66.6072C287.092 66.2393 286.76 65.7173 286.638 65.0412L288.075 64.8224C288.164 65.197 288.348 65.4804 288.626 65.6726C288.905 65.8615 289.268 65.956 289.715 65.956C290.202 65.956 290.592 65.8549 290.884 65.6527C291.175 65.4472 291.321 65.197 291.321 64.902C291.321 64.6634 291.232 64.4628 291.053 64.3004C290.877 64.138 290.607 64.0154 290.242 63.9325L288.95 63.6491C288.237 63.4867 287.71 63.2282 287.369 62.8736C287.031 62.5189 286.862 62.0698 286.862 61.5263C286.862 61.0755 286.987 60.6811 287.239 60.343C287.491 60.005 287.839 59.7415 288.283 59.5526C288.728 59.3603 289.236 59.2642 289.81 59.2642C290.635 59.2642 291.285 59.4432 291.759 59.8011C292.232 60.1558 292.546 60.6314 292.698 61.228Z" fill="#333333"/>
<rect x="34" y="33" width="60" height="60" rx="5" fill="#27AE60" fill-opacity="0.1"/>
<path d="M58 51L55 55V69C55 69.5304 55.2107 70.0391 55.5858 70.4142C55.9609 70.7893 56.4696 71 57 71H71C71.5304 71 72.0391 70.7893 72.4142 70.4142C72.7893 70.0391 73 69.5304 73 69V55L70 51H58Z" stroke="#219653" stroke-width="2" stroke-linecap="round" stroke-linejoin="round"/>
<path d="M55 55H73" stroke="#219653" stroke-width="2" stroke-linecap="round" stroke-linejoin="round"/>
<path d="M68 59C68 60.0609 67.5786 61.0783 66.8284 61.8284C66.0783 62.5786 65.0609 63 64 63C62.9391 63 61.9217 62.5786 61.1716 61.8284C60.4214 61.0783 60 60.0609 60 59" stroke="#219653" stroke-width="2" stroke-linecap="round" stroke-linejoin="round"/>
<defs>
<filter id="filter0_d_0_1" x="0" y="0" width="417" height="135" filterUnits="userSpaceOnUse" color-interpolation-filters="sRGB">
<feFlood flood-opacity="0" result="BackgroundImageFix"/>
<feColorMatrix in="SourceAlpha" type="matrix" values="0 0 0 0 0 0 0 0 0 0 0 0 0 0 0 0 0 0 127 0" result="hardAlpha"/>
<feMorphology radius="20" operator="erode" in="SourceAlpha" result="effect1_dropShadow_0_1"/>
<feOffset dy="4"/>
<feGaussianBlur stdDeviation="20"/>
<feComposite in2="hardAlpha" operator="out"/>
<feColorMatrix type="matrix" values="0 0 0 0 0 0 0 0 0 0 0 0 0 0 0 0 0 0 0.25 0"/>
<feBlend mode="normal" in2="BackgroundImageFix" result="effect1_dropShadow_0_1"/>
<feBlend mode="normal" in="SourceGraphic" in2="effect1_dropShadow_0_1" result="shape"/>
</filter>
</defs>
</svg>
