<svg width="17" height="19" viewBox="0 0 17 19" fill="none" xmlns="http://www.w3.org/2000/svg">
<path d="M15.6099 1.33594H11.3911L11.0396 0.703125C10.8989 0.421875 10.6177 0.210938 10.3013 0.210938H6.2583C5.94189 0.210938 5.66064 0.421875 5.52002 0.703125L5.20361 1.33594H0.984863C0.668457 1.33594 0.422363 1.61719 0.422363 1.89844V3.02344C0.422363 3.33984 0.668457 3.58594 0.984863 3.58594H15.6099C15.8911 3.58594 16.1724 3.33984 16.1724 3.02344V1.89844C16.1724 1.61719 15.8911 1.33594 15.6099 1.33594ZM2.28564 16.6289C2.3208 17.543 3.05908 18.2109 3.97314 18.2109H12.5864C13.5005 18.2109 14.2388 17.543 14.2739 16.6289L15.0474 4.71094H1.54736L2.28564 16.6289Z" fill="#BDBDBD"/>
</svg>
